<svg xmlns="http://www.w3.org/2000/svg" xmlns:xlink="http://www.w3.org/1999/xlink" width="500" zoomAndPan="magnify" viewBox="0 0 375 374.999991" height="500" preserveAspectRatio="xMidYMid meet" version="1.0"><defs><clipPath id="860b4d0dbc"><path d="M 158.144531 75.792969 L 208.839844 75.792969 L 208.839844 125.429688 L 158.144531 125.429688 Z M 158.144531 75.792969 " clip-rule="nonzero"/></clipPath><clipPath id="e6f7f18b3a"><path d="M 158.175781 96.824219 C 160.648438 92.773438 160.574219 92.699219 160.574219 92.550781 C 160.648438 91.875 161.023438 90.074219 161.476562 88.949219 C 161.925781 87.824219 162.523438 86.699219 163.199219 85.726562 C 163.875 84.75 164.699219 83.773438 165.675781 82.949219 C 166.574219 82.199219 167.625 81.449219 168.675781 80.925781 C 169.726562 80.324219 171.226562 79.800781 172.125 79.648438 C 172.574219 79.5 173.101562 79.648438 173.324219 79.5 C 173.550781 79.351562 173.550781 79.199219 173.773438 79.050781 C 174.523438 78.523438 176.851562 77.175781 178.574219 76.648438 C 180.226562 76.050781 182.023438 75.824219 183.824219 75.824219 C 185.550781 75.898438 187.875 76.351562 189.074219 76.800781 C 189.675781 77.023438 190.125 77.476562 190.425781 77.550781 C 190.5 77.550781 190.574219 77.476562 190.648438 77.476562 C 190.949219 77.550781 191.625 78.226562 192.148438 78.523438 C 192.675781 78.824219 193.351562 79.050781 193.726562 79.351562 C 193.949219 79.574219 194.101562 79.800781 194.324219 80.023438 C 194.550781 80.25 194.773438 80.324219 195 80.550781 C 195.375 80.851562 195.449219 81.449219 195.976562 81.824219 C 197.023438 82.5 199.800781 81.898438 201.523438 83.175781 C 204.300781 85.351562 208.273438 91.800781 208.648438 96.601562 C 209.101562 101.699219 206.175781 108.601562 203.175781 113.175781 C 200.398438 117.449219 196.351562 121.425781 191.699219 123.300781 C 186.601562 125.398438 178.574219 126.148438 173.550781 124.125 C 168.75 122.175781 164.476562 116.773438 161.851562 112.125 C 159.375 107.625 158.175781 96.824219 158.175781 96.824219 " clip-rule="nonzero"/></clipPath><clipPath id="b9872fa4a6"><path d="M 78.039062 74 L 137.476562 74 L 137.476562 116.289062 L 78.039062 116.289062 Z M 78.039062 74 " clip-rule="nonzero"/></clipPath><clipPath id="479101f59f"><path d="M 116.324219 114.898438 C 105.148438 110.851562 95.773438 111.148438 90.675781 108 C 85.800781 105 81.226562 97.574219 79.425781 94.199219 C 78.601562 92.550781 78.375 91.425781 78.226562 90.074219 C 78.148438 88.800781 78.226562 87.675781 78.675781 86.25 C 79.273438 84.226562 80.925781 81.148438 82.125 79.5 C 83.023438 78.300781 83.773438 77.699219 84.976562 76.875 C 86.773438 75.824219 89.625 74.476562 92.101562 74.175781 C 94.574219 73.800781 97.648438 74.398438 99.675781 75 C 101.101562 75.449219 101.925781 75.898438 103.050781 76.726562 C 104.699219 78 107.023438 80.25 108.148438 82.425781 C 109.351562 84.601562 110.851562 87.148438 110.023438 89.773438 C 108.675781 94.5 96.898438 104.699219 92.625 105.75 C 90.601562 106.199219 89.175781 105.148438 87.675781 104.398438 C 86.101562 103.726562 84.601562 102.75 83.324219 101.625 C 82.125 100.425781 81 99 80.175781 97.574219 C 79.351562 96.074219 78.75 94.351562 78.523438 92.699219 C 78.226562 91.050781 78.148438 89.25 78.449219 87.523438 C 78.675781 85.875 79.199219 84.148438 80.023438 82.648438 C 80.773438 81.148438 81.824219 79.726562 83.101562 78.523438 C 84.300781 77.324219 85.800781 76.273438 87.300781 75.601562 C 88.800781 74.851562 90.523438 74.324219 92.25 74.101562 C 93.898438 73.949219 95.699219 74.023438 97.351562 74.324219 C 99 74.699219 100.726562 75.375 102.148438 76.199219 C 103.648438 77.023438 105 78.226562 106.125 79.5 C 107.25 80.773438 108.226562 82.273438 108.824219 83.851562 C 109.5 85.425781 109.875 87.148438 110.023438 88.875 C 110.101562 90.523438 109.949219 92.324219 109.5 93.976562 C 109.050781 95.625 108.375 97.273438 107.398438 98.699219 C 106.5 100.125 105.226562 101.398438 103.949219 102.449219 C 102.601562 103.5 101.023438 104.324219 99.375 104.925781 C 97.800781 105.449219 96 105.824219 94.351562 105.824219 C 92.625 105.824219 90.898438 105.601562 89.25 105.074219 C 87.675781 104.550781 86.023438 103.726562 84.675781 102.675781 C 83.324219 101.699219 82.050781 100.425781 81.074219 99 C 80.101562 97.648438 79.351562 96 78.898438 94.351562 C 78.375 92.699219 78.226562 90.976562 78.226562 89.25 C 78.300781 87.601562 78.675781 85.800781 79.273438 84.226562 C 79.875 82.648438 80.851562 81.074219 81.898438 79.800781 C 82.949219 78.449219 84.375 77.324219 85.800781 76.425781 C 87.226562 75.523438 90.226562 73.949219 90.523438 74.398438 C 91.199219 75.375 79.199219 90.523438 78.226562 90.074219 C 77.625 89.773438 78.898438 84.824219 80.023438 82.648438 C 81.148438 80.476562 83.023438 78.300781 84.976562 76.949219 C 87 75.523438 89.625 74.476562 92.101562 74.175781 C 94.574219 73.800781 97.648438 74.398438 99.675781 75 C 101.101562 75.449219 101.925781 75.898438 103.050781 76.726562 C 104.699219 78 107.023438 80.25 108.148438 82.425781 C 109.351562 84.601562 110.101562 89.773438 110.023438 89.773438 C 110.023438 89.773438 105.75 80.773438 107.101562 79.5 C 108.675781 77.925781 117.449219 82.351562 121.800781 84.074219 C 125.398438 85.5 129.300781 87.300781 131.398438 88.800781 C 132.675781 89.625 133.199219 90.148438 134.023438 91.273438 C 135.226562 92.925781 136.726562 95.550781 137.175781 97.875 C 137.625 100.199219 137.550781 102.898438 136.875 105.148438 C 136.273438 107.398438 134.550781 109.949219 133.273438 111.449219 C 132.375 112.5 131.625 113.101562 130.425781 113.773438 C 128.699219 114.75 125.851562 115.875 123.523438 116.101562 C 121.199219 116.25 116.324219 114.898438 116.324219 114.898438 " clip-rule="nonzero"/></clipPath><clipPath id="cb87a79d3e"><path d="M 45 126.523438 L 181.394531 126.523438 L 181.394531 233 L 45 233 Z M 45 126.523438 " clip-rule="nonzero"/></clipPath><clipPath id="1a935e1bb6"><path d="M 70.800781 130.800781 C 79.574219 137.851562 84.300781 140.851562 90 143.851562 C 98.25 148.199219 113.023438 154.425781 121.5 157.949219 C 127.050781 160.273438 131.550781 160.351562 135.523438 163.273438 C 139.648438 166.351562 141.226562 173.476562 145.574219 176.175781 C 149.851562 178.800781 157.125 176.476562 161.324219 179.175781 C 165.523438 181.800781 169.125 187.5 170.773438 192.300781 C 172.273438 197.023438 169.199219 206.699219 171 207.75 C 172.273438 208.425781 175.574219 203.851562 177.074219 204.300781 C 178.5 204.601562 179.324219 207.375 180 209.023438 C 180.675781 210.75 181.125 212.699219 181.273438 214.5 C 181.351562 216.375 181.125 218.324219 180.675781 220.125 C 180.226562 221.851562 179.398438 223.648438 178.351562 225.226562 C 177.300781 226.726562 175.949219 228.148438 174.523438 229.273438 C 173.023438 230.398438 171.300781 231.375 169.574219 231.976562 C 167.851562 232.574219 165.898438 232.875 164.023438 232.875 C 162.226562 232.875 160.273438 232.574219 158.550781 231.976562 C 156.75 231.449219 155.023438 230.550781 153.523438 229.425781 C 152.101562 228.300781 150.75 226.875 149.699219 225.375 C 148.648438 223.875 147.824219 222.074219 147.300781 220.273438 C 146.773438 218.550781 146.550781 216.523438 146.625 214.726562 C 146.773438 212.851562 147.148438 210.976562 147.824219 209.25 C 148.5 207.523438 149.476562 205.800781 150.675781 204.449219 C 151.875 203.023438 153.375 201.75 154.949219 200.773438 C 156.523438 199.800781 158.324219 199.050781 160.125 198.675781 C 161.925781 198.226562 163.875 198.148438 165.75 198.300781 C 167.550781 198.523438 169.5 199.050781 171.148438 199.800781 C 172.800781 200.550781 174.449219 201.675781 175.800781 202.949219 C 177.148438 204.148438 178.351562 205.726562 179.25 207.375 C 180.074219 209.023438 180.75 210.824219 181.050781 212.699219 C 181.351562 214.5 181.351562 216.449219 181.050781 218.25 C 180.75 220.125 180.148438 221.925781 179.324219 223.574219 C 178.425781 225.226562 177.300781 226.800781 175.949219 228.074219 C 174.601562 229.351562 172.949219 230.476562 171.300781 231.226562 C 169.648438 232.050781 167.773438 232.574219 165.898438 232.800781 C 164.101562 232.949219 162.148438 232.875 160.351562 232.5 C 158.550781 232.125 156.976562 231.601562 155.101562 230.476562 C 152.476562 228.824219 149.324219 225.824219 146.550781 222.675781 C 143.25 218.851562 138 213.824219 137.023438 208.875 C 136.050781 203.851562 139.125 192.824219 140.625 192.675781 C 142.199219 192.601562 147.898438 206.925781 146.25 208.5 C 144.523438 210.226562 135.148438 205.125 130.050781 202.351562 C 124.875 199.351562 122.023438 195 115.574219 191.023438 C 105 184.5 81.75 176.101562 70.949219 169.648438 C 64.273438 165.675781 59.699219 162 55.574219 158.550781 C 52.425781 155.925781 49.5 153.148438 47.925781 151.050781 C 47.023438 149.773438 46.648438 149.101562 46.199219 147.75 C 45.601562 145.800781 45.074219 142.800781 45.300781 140.476562 C 45.601562 138.074219 46.574219 135.523438 47.925781 133.574219 C 49.273438 131.625 51.375 129.824219 53.476562 128.699219 C 55.574219 127.574219 58.199219 126.898438 60.601562 126.898438 C 63 126.898438 65.925781 127.875 67.726562 128.699219 C 69 129.300781 70.800781 130.800781 70.800781 130.800781 " clip-rule="nonzero"/></clipPath><clipPath id="7843e30ac4"><path d="M 172.160156 151.382812 L 202.316406 151.382812 L 202.316406 181.679688 L 172.160156 181.679688 Z M 172.160156 151.382812 " clip-rule="nonzero"/></clipPath><clipPath id="70c30a434a"><path d="M 172.199219 166.425781 C 173.476562 160.125 174.300781 158.625 175.273438 157.351562 C 176.25 156.074219 177.449219 154.875 178.800781 153.976562 C 180.074219 153.074219 181.648438 152.398438 183.226562 151.949219 C 184.726562 151.5 186.449219 151.351562 188.023438 151.425781 C 189.601562 151.5 191.25 151.875 192.75 152.476562 C 194.25 153.074219 195.75 153.898438 196.949219 154.949219 C 198.148438 156 199.273438 157.273438 200.101562 158.699219 C 200.925781 160.050781 201.523438 161.625 201.898438 163.199219 C 202.199219 164.773438 202.273438 166.425781 202.125 168 C 201.976562 169.648438 201.523438 171.226562 200.851562 172.726562 C 200.175781 174.148438 199.199219 175.574219 198.074219 176.699219 C 197.023438 177.898438 195.675781 178.949219 194.25 179.699219 C 192.824219 180.449219 191.25 180.976562 189.675781 181.199219 C 188.023438 181.5 186.375 181.5 184.800781 181.199219 C 183.226562 180.976562 181.574219 180.449219 180.148438 179.699219 C 178.800781 178.949219 177.375 177.898438 176.324219 176.699219 C 175.199219 175.574219 174.226562 174.148438 173.625 172.726562 C 172.949219 171.226562 172.425781 169.648438 172.273438 168 C 172.125 166.425781 172.199219 164.773438 172.574219 163.199219 C 172.875 161.625 173.550781 160.050781 174.375 158.699219 C 175.199219 157.273438 176.25 156 177.523438 154.949219 C 178.726562 153.898438 180.148438 153.074219 181.648438 152.476562 C 183.148438 151.875 184.800781 151.5 186.375 151.425781 C 188.023438 151.351562 189.675781 151.5 191.25 151.949219 C 192.75 152.398438 194.324219 153.074219 195.675781 153.976562 C 196.949219 154.875 198.226562 156.074219 199.199219 157.351562 C 200.101562 158.625 200.925781 160.125 201.449219 161.625 C 201.976562 163.125 202.273438 164.699219 202.199219 166.425781 C 202.125 168.523438 201.375 171.601562 200.625 173.398438 C 200.023438 174.675781 199.574219 175.425781 198.601562 176.398438 C 197.25 177.824219 194.925781 179.699219 192.75 180.601562 C 190.574219 181.425781 187.949219 181.800781 185.625 181.574219 C 183.300781 181.273438 180.523438 180.074219 178.875 179.101562 C 177.675781 178.351562 177 177.824219 176.101562 176.699219 C 174.898438 175.199219 173.324219 172.273438 172.648438 170.398438 C 172.273438 169.125 172.199219 166.800781 172.199219 166.800781 " clip-rule="nonzero"/></clipPath><clipPath id="24e8a34981"><path d="M 33 119 L 184.5 119 L 184.5 349.816406 L 33 349.816406 Z M 33 119 " clip-rule="nonzero"/></clipPath><clipPath id="136b42cec8"><path d="M 33.226562 136.050781 C 33.523438 131.175781 33.824219 129.898438 34.273438 128.773438 C 34.726562 127.648438 35.398438 126.523438 36.074219 125.550781 C 36.824219 124.574219 37.648438 123.675781 38.625 122.851562 C 39.523438 122.023438 40.648438 121.351562 41.699219 120.824219 C 42.824219 120.300781 44.023438 119.851562 45.226562 119.625 C 46.425781 119.324219 47.625 119.25 48.898438 119.25 C 50.101562 119.25 51.375 119.476562 52.5 119.773438 C 53.699219 120.074219 54.898438 120.601562 55.949219 121.199219 C 57 121.800781 58.050781 122.550781 58.949219 123.375 C 59.851562 124.199219 60.675781 125.175781 61.351562 126.148438 C 62.023438 127.199219 62.699219 128.851562 63 129.523438 C 63.074219 129.75 62.925781 129.898438 63.074219 130.050781 C 63.601562 130.5 66.074219 129.449219 68.023438 129.976562 C 71.476562 130.800781 76.800781 135 81.148438 137.476562 C 85.648438 140.023438 90.226562 142.273438 94.648438 145.050781 C 99.074219 147.824219 103.050781 151.648438 107.773438 154.125 C 112.5 156.75 118.574219 157.726562 123.148438 160.351562 C 127.351562 162.75 130.199219 166.726562 134.324219 168.824219 C 138.601562 171 146.023438 170.324219 148.5 172.949219 C 150.375 174.976562 148.5 179.25 150.375 181.050781 C 152.773438 183.449219 159.675781 181.726562 164.023438 183.898438 C 169.050781 186.300781 177 191.175781 178.425781 195.976562 C 179.699219 200.324219 174.148438 205.875 173.925781 211.050781 C 173.699219 216.226562 176.175781 221.625 177.226562 226.875 C 178.199219 232.125 179.25 237.226562 179.925781 242.625 C 180.75 248.175781 181.273438 254.175781 181.648438 259.875 C 182.023438 265.273438 182.175781 270.449219 182.324219 275.773438 C 182.476562 281.101562 182.398438 286.351562 182.699219 291.675781 C 182.925781 297.300781 183.824219 303.226562 183.898438 308.699219 C 183.976562 313.875 183.601562 321.898438 183.300781 323.773438 C 183.226562 324.148438 183.074219 324.226562 183.148438 324.523438 C 183.148438 324.824219 183.375 325.273438 183.523438 325.726562 C 183.675781 326.324219 184.199219 327.75 184.199219 327.824219 C 184.199219 327.824219 184.273438 329.25 184.351562 330 C 184.425781 330.675781 184.5 332.101562 184.5 332.175781 C 184.5 332.175781 184.273438 333.601562 184.125 334.351562 C 184.050781 335.023438 183.824219 336.449219 183.824219 336.523438 C 183.75 336.523438 183.226562 337.800781 182.925781 338.476562 C 182.625 339.148438 182.101562 340.5 182.023438 340.5 C 182.023438 340.5 181.199219 341.699219 180.75 342.226562 C 180.300781 342.824219 179.398438 343.949219 179.398438 344.023438 C 179.398438 344.023438 178.273438 344.925781 177.675781 345.375 C 177.148438 345.824219 176.023438 346.726562 175.949219 346.726562 C 175.949219 346.800781 174.675781 347.398438 174 347.699219 C 173.324219 348 172.050781 348.601562 171.976562 348.601562 C 171.976562 348.601562 170.550781 348.898438 169.875 349.050781 C 169.125 349.199219 167.773438 349.425781 167.699219 349.425781 C 167.699219 349.425781 166.273438 349.351562 165.523438 349.351562 C 164.773438 349.351562 163.351562 349.273438 163.351562 349.273438 C 163.273438 349.273438 161.925781 348.824219 161.25 348.601562 C 160.5 348.449219 159.148438 348 159.148438 348 C 159.074219 348 157.875 347.25 157.199219 346.875 C 156.601562 346.5 155.398438 345.824219 155.324219 345.824219 C 155.324219 345.75 154.273438 344.773438 153.75 344.25 C 153.226562 343.726562 152.25 342.75 152.175781 342.75 C 152.175781 342.675781 151.425781 341.476562 151.050781 340.875 C 150.675781 340.273438 149.851562 339 149.851562 339 C 149.851562 339 149.324219 338.476562 149.101562 338.175781 C 148.800781 337.949219 148.5 337.800781 148.199219 337.5 C 147.824219 337.125 147.523438 336.675781 147 336.148438 C 146.175781 335.175781 144.75 333.375 143.550781 332.625 C 142.5 331.949219 141.824219 332.175781 140.476562 331.425781 C 137.175781 329.699219 128.550781 323.398438 124.648438 320.175781 C 122.175781 318.074219 121.199219 315.675781 118.800781 314.625 C 116.175781 313.425781 112.800781 314.625 109.125 313.875 C 103.875 312.675781 96.449219 309.601562 90.601562 306.898438 C 85.125 304.425781 80.101562 301.949219 75.148438 298.574219 C 70.050781 295.125 64.875 290.476562 60.523438 286.199219 C 56.625 282.375 53.625 278.625 50.25 274.5 C 46.648438 270.148438 41.324219 265.800781 39.375 260.625 C 37.5 255.449219 39 249.074219 38.699219 243.523438 C 38.398438 238.125 37.949219 233.101562 37.648438 227.699219 C 37.351562 221.925781 37.050781 215.625 36.898438 209.925781 C 36.675781 204.675781 36.601562 200.101562 36.523438 194.851562 C 36.523438 189 36.898438 182.476562 36.601562 176.625 C 36.300781 171 35.101562 165.675781 34.648438 160.199219 C 34.199219 154.800781 34.199219 148.425781 33.898438 144 C 33.675781 140.851562 33.226562 136.050781 33.226562 136.050781 " clip-rule="nonzero"/></clipPath><clipPath id="9a846c3237"><path d="M 49 27.378906 L 319 27.378906 L 319 181 L 49 181 Z M 49 27.378906 " clip-rule="nonzero"/></clipPath><clipPath id="41b4e1996a"><path d="M 49.050781 103.726562 C 54.300781 84.226562 68.101562 84.074219 68.550781 82.800781 C 68.699219 82.425781 67.800781 82.125 67.949219 81.898438 C 68.398438 81.148438 81.375 83.25 83.398438 83.925781 C 84 84.148438 83.925781 84.449219 84.449219 84.523438 C 85.574219 84.601562 89.550781 83.851562 90.675781 82.273438 C 91.949219 80.476562 89.550781 76.648438 90.824219 73.875 C 92.773438 69.675781 100.425781 65.476562 105 61.425781 C 109.425781 57.601562 113.398438 53.625 117.976562 50.25 C 122.550781 46.875 127.648438 43.648438 132.601562 41.175781 C 137.324219 38.773438 142.050781 37.273438 147 35.398438 C 152.101562 33.523438 157.273438 31.199219 162.824219 29.925781 C 168.449219 28.648438 174.375 27.976562 180.601562 27.898438 C 187.425781 27.824219 195.675781 28.875 202.125 29.851562 C 207.523438 30.601562 211.648438 31.199219 216.824219 32.851562 C 222.898438 34.800781 232.199219 39.074219 236.175781 41.550781 C 238.125 42.824219 239.175781 44.398438 240.226562 45 C 240.75 45.300781 240.976562 45.074219 241.648438 45.449219 C 243.824219 46.5 252.675781 52.800781 254.25 53.699219 C 254.550781 53.925781 254.550781 53.851562 254.851562 54 C 255.976562 54.523438 260.101562 55.648438 262.273438 56.851562 C 264.148438 57.898438 266.476562 60.148438 267.148438 60.601562 C 267.300781 60.75 267.300781 60.675781 267.449219 60.824219 C 268.726562 61.574219 276.601562 67.949219 281.324219 70.800781 C 285.824219 73.425781 290.625 75.074219 295.125 77.550781 C 299.625 80.023438 304.726562 81.824219 308.476562 85.800781 C 312.898438 90.523438 319.425781 99.449219 318.824219 105.148438 C 318.300781 110.324219 311.851562 115.800781 307.199219 118.800781 C 302.773438 121.648438 296.699219 120.898438 291.824219 123.226562 C 286.800781 125.625 282.375 130.199219 277.574219 133.199219 C 273.074219 136.050781 268.648438 138.523438 263.851562 140.851562 C 258.976562 143.25 253.574219 145.125 248.699219 147.523438 C 243.976562 149.773438 239.699219 152.550781 234.898438 154.800781 C 230.101562 156.976562 224.851562 158.398438 220.050781 160.648438 C 215.324219 162.898438 209.925781 166.125 206.324219 168.226562 C 203.851562 169.726562 201.226562 171.226562 200.25 172.125 C 199.875 172.425781 199.949219 172.726562 199.648438 172.949219 C 199.273438 173.175781 198.898438 173.101562 198.300781 173.398438 C 196.800781 174.074219 193.199219 177.601562 191.175781 177.898438 C 189.898438 178.125 189.148438 176.925781 187.726562 176.925781 C 185.101562 177 180.824219 180.898438 176.925781 180.523438 C 172.050781 180.074219 166.574219 174.074219 160.949219 171.523438 C 155.25 168.976562 149.023438 168 143.023438 165.375 C 136.425781 162.523438 128.925781 158.324219 123 154.726562 C 117.976562 151.726562 113.925781 148.949219 109.574219 145.726562 C 105.300781 142.5 101.851562 138.226562 97.125 135.375 C 92.175781 132.375 84.523438 131.398438 80.324219 128.324219 C 77.023438 125.925781 74.773438 121.648438 72.976562 119.925781 C 72.074219 119.023438 71.550781 118.574219 70.800781 118.125 C 70.125 117.824219 69.523438 117.898438 68.851562 117.523438 C 67.875 117.148438 66.675781 116.398438 65.699219 115.648438 C 64.726562 114.898438 63.601562 113.773438 63.074219 113.023438 C 62.699219 112.574219 62.851562 112.351562 62.398438 111.898438 C 60.75 110.324219 49.050781 103.726562 49.050781 103.726562 " clip-rule="nonzero"/></clipPath><clipPath id="00fdb0d7c6"><path d="M 176.140625 131.683594 L 341.226562 131.683594 L 341.226562 323.933594 L 176.140625 323.933594 Z M 176.140625 131.683594 " clip-rule="nonzero"/></clipPath><clipPath id="7a45b6d135"><path d="M 204.402344 188.464844 C 220.515625 176.957031 256.109375 164.914062 256.109375 160.308594 C 256.109375 158.183594 247.253906 157.832031 246.722656 155.707031 C 246.191406 153.226562 251.503906 148.976562 254.515625 146.144531 C 257.527344 143.308594 260.890625 140.652344 264.433594 138.707031 C 267.972656 136.582031 271.871094 134.988281 275.765625 133.746094 C 279.660156 132.683594 283.734375 131.976562 287.804688 131.800781 C 291.878906 131.621094 296.128906 131.976562 300.203125 132.863281 C 304.097656 133.570312 308.171875 134.988281 311.890625 136.757812 C 315.609375 138.527344 319.148438 140.832031 322.335938 143.308594 C 325.523438 145.964844 328.359375 148.976562 330.835938 152.164062 C 333.316406 155.527344 335.441406 159.070312 337.035156 162.964844 C 338.628906 166.683594 339.691406 170.757812 340.398438 174.652344 C 341.109375 178.726562 341.285156 182.976562 340.929688 187.050781 C 340.578125 191.121094 340.222656 193.421875 338.453125 199.089844 C 334.023438 213.964844 321.453125 258.234375 307.460938 277.359375 C 296.660156 292.234375 269.566406 310.296875 268.503906 309.414062 C 268.152344 309.058594 270.277344 306.578125 270.097656 306.226562 C 269.566406 305.871094 261.421875 314.371094 256.464844 317.027344 C 251.503906 319.859375 245.660156 321.984375 240.171875 322.871094 C 234.503906 323.933594 228.308594 324.109375 222.640625 323.226562 C 217.152344 322.515625 211.308594 320.570312 206.171875 318.089844 C 201.035156 315.433594 196.078125 311.890625 192.183594 307.820312 C 188.109375 303.746094 184.566406 298.789062 182.089844 293.652344 C 179.609375 288.515625 177.839844 282.671875 177.128906 277.007812 C 176.421875 271.339844 176.597656 265.140625 177.660156 259.652344 C 178.902344 253.984375 181.027344 248.320312 183.859375 243.359375 C 186.691406 238.402344 190.589844 233.621094 194.839844 229.902344 C 199.089844 226.007812 204.222656 222.820312 209.535156 220.515625 C 214.847656 218.390625 220.691406 216.976562 226.359375 216.621094 C 232.203125 216.089844 238.222656 216.621094 243.714844 218.039062 C 249.203125 219.453125 254.871094 221.933594 259.652344 225.121094 C 264.433594 228.132812 269.035156 232.382812 272.578125 236.808594 C 276.121094 241.234375 278.953125 246.546875 280.902344 252.039062 C 282.847656 257.351562 283.910156 263.371094 284.085938 269.039062 C 284.265625 274.703125 283.378906 280.902344 281.609375 286.214844 C 279.839844 291.703125 277.183594 297.195312 273.816406 301.796875 C 270.453125 306.402344 266.027344 310.652344 261.421875 314.015625 C 256.640625 317.203125 251.152344 319.859375 245.660156 321.632812 C 240.347656 323.226562 234.152344 323.933594 228.484375 323.757812 C 222.816406 323.578125 216.796875 322.339844 211.484375 320.390625 C 206.171875 318.445312 200.859375 315.257812 196.433594 311.714844 C 192.003906 308.171875 187.933594 303.570312 184.921875 298.609375 C 181.910156 293.828125 179.433594 288.164062 178.191406 282.671875 C 176.777344 277.183594 176.421875 270.984375 176.953125 265.320312 C 177.308594 259.652344 178.902344 253.808594 181.203125 248.496094 C 183.503906 243.183594 185.453125 238.578125 190.765625 233.976562 C 199.796875 226.007812 227.421875 224.945312 236.808594 212.546875 C 246.902344 199.445312 241.765625 166.332031 246.722656 155.707031 C 249.027344 150.746094 251.503906 148.976562 254.515625 146.144531 C 257.527344 143.308594 260.890625 140.652344 264.433594 138.707031 C 267.972656 136.582031 271.871094 134.988281 275.765625 133.746094 C 279.660156 132.683594 283.734375 131.976562 287.804688 131.800781 C 291.878906 131.621094 296.128906 131.976562 300.203125 132.863281 C 304.097656 133.570312 308.171875 134.988281 311.890625 136.757812 C 315.609375 138.527344 319.148438 140.832031 322.335938 143.308594 C 325.523438 145.964844 328.359375 148.976562 330.835938 152.164062 C 333.316406 155.527344 335.441406 159.070312 337.035156 162.964844 C 338.628906 166.683594 339.691406 170.757812 340.398438 174.652344 C 341.109375 178.726562 341.285156 182.976562 340.929688 187.050781 C 340.578125 191.121094 339.691406 195.195312 338.453125 199.089844 C 337.210938 202.984375 335.972656 206.171875 333.140625 210.246094 C 328.710938 216.621094 320.566406 224.414062 311.535156 232.203125 C 299.140625 242.828125 274.347656 259.828125 264.078125 266.558594 C 259.652344 269.390625 257.527344 270.984375 253.984375 272.402344 C 250.441406 273.996094 246.546875 275.234375 242.652344 275.945312 C 238.753906 276.476562 234.683594 276.828125 230.785156 276.476562 C 226.890625 276.121094 222.816406 275.414062 219.097656 274.171875 C 215.378906 272.933594 211.839844 271.339844 208.472656 269.214844 C 205.109375 267.089844 201.921875 264.609375 199.265625 261.777344 C 196.433594 258.945312 193.953125 255.757812 192.003906 252.390625 C 190.058594 249.027344 188.464844 245.308594 187.222656 241.589844 C 186.160156 237.871094 185.453125 233.796875 185.277344 229.902344 C 185.097656 226.007812 185.453125 221.933594 186.160156 218.039062 C 186.871094 214.320312 188.109375 210.421875 189.703125 206.882812 C 191.472656 203.339844 193.597656 199.796875 196.078125 196.789062 C 198.378906 193.777344 204.402344 188.464844 204.402344 188.464844 " clip-rule="nonzero"/></clipPath><clipPath id="ba1013f057"><path d="M 188 255.492188 L 238.84375 255.492188 L 238.84375 346.382812 L 188 346.382812 Z M 188 255.492188 " clip-rule="nonzero"/></clipPath><clipPath id="2f35ddab22"><path d="M 213.609375 330.484375 C 200.859375 330.308594 206.878906 334.382812 207.234375 336.859375 C 207.589844 338.984375 205.996094 341.640625 204.753906 343.234375 C 203.691406 344.472656 202.628906 345.359375 201.035156 345.714844 C 198.734375 346.246094 194.308594 346.066406 192.183594 344.472656 C 189.878906 343.058594 187.753906 339.160156 188.109375 336.507812 C 188.464844 333.496094 192.003906 330.484375 195.722656 327.296875 C 201.921875 322.339844 221.578125 310.296875 224.058594 312.246094 C 225.472656 313.308594 223.347656 320.039062 221.222656 322.339844 C 219.277344 324.820312 215.378906 326.414062 212.191406 326.765625 C 209.003906 326.945312 205.285156 325.351562 202.453125 323.757812 C 199.621094 322.339844 197.140625 320.746094 195.191406 317.558594 C 192.359375 313.132812 189.703125 305.164062 190.058594 298.257812 C 190.410156 290.109375 194.660156 274.351562 199.441406 271.871094 C 202.453125 270.453125 207.234375 275.414062 210.597656 275.234375 C 213.785156 275.234375 217.503906 270.984375 219.277344 272.226562 C 221.933594 274.171875 219.984375 287.277344 218.746094 294.359375 C 217.859375 300.914062 216.796875 308.351562 213.078125 313.132812 C 209.359375 317.914062 199.621094 324.109375 196.078125 322.871094 C 193.246094 321.984375 191.652344 315.257812 191.828125 311.714844 C 192.003906 308.351562 194.308594 304.101562 196.785156 301.976562 C 199.089844 299.851562 203.339844 298.609375 205.996094 298.789062 C 208.296875 298.964844 210.421875 300.382812 212.015625 301.976562 C 213.433594 303.570312 214.671875 305.871094 214.671875 307.996094 C 214.671875 310.828125 213.253906 315.257812 210.953125 317.027344 C 208.828125 318.976562 204.222656 319.859375 201.566406 319.152344 C 198.734375 318.445312 195.371094 315.078125 194.484375 312.421875 C 193.597656 309.589844 194.308594 304.984375 196.078125 302.683594 C 197.847656 300.558594 202.097656 298.609375 204.933594 298.789062 C 207.765625 298.789062 211.839844 301.265625 213.253906 303.746094 C 214.671875 306.226562 214.316406 310.828125 213.785156 313.484375 C 213.433594 315.609375 212.371094 318.621094 211.484375 318.621094 C 210.246094 318.445312 209.890625 309.765625 207.234375 307.820312 C 204.046875 305.695312 194.660156 310.296875 192.890625 307.996094 C 190.765625 304.984375 197.847656 295.246094 198.910156 288.871094 C 199.972656 282.671875 198.734375 275.765625 199.441406 270.632812 C 200.152344 266.558594 200.328125 262.484375 202.453125 260.007812 C 204.578125 257.527344 209.535156 254.695312 212.191406 255.757812 C 215.910156 257.171875 220.160156 267.796875 220.515625 273.996094 C 220.691406 280.371094 214.140625 286.746094 213.253906 293.652344 C 212.191406 300.382812 215.378906 314.371094 214.496094 314.546875 C 213.964844 314.726562 209.359375 306.402344 210.597656 304.808594 C 212.371094 302.859375 226.535156 306.757812 231.496094 309.414062 C 234.683594 311.359375 237.515625 314.015625 238.402344 317.027344 C 239.285156 320.214844 238.933594 324.464844 236.277344 328.007812 C 231.316406 334.558594 201.566406 347.484375 200.328125 345.890625 C 199.621094 345.003906 206.878906 336.683594 207.234375 336.859375 C 207.589844 337.039062 206.171875 341.640625 204.753906 343.234375 C 203.339844 344.828125 200.859375 346.066406 198.734375 346.246094 C 196.609375 346.421875 193.777344 345.890625 192.183594 344.472656 C 190.058594 342.878906 188.464844 339.871094 188.109375 336.507812 C 187.578125 331.726562 189.878906 321.984375 192.535156 317.734375 C 194.484375 314.726562 196.785156 312.601562 199.796875 311.539062 C 203.871094 310.296875 211.660156 311.359375 215.378906 312.601562 C 217.683594 313.484375 219.628906 314.371094 220.691406 316.140625 C 221.933594 318.089844 222.464844 322.164062 221.933594 324.289062 C 221.578125 325.882812 220.691406 326.945312 219.628906 328.007812 C 218.214844 329.070312 213.609375 330.484375 213.609375 330.484375 " clip-rule="nonzero"/></clipPath><clipPath id="0af6e2e7b5"><path d="M 189.742188 116 L 341 116 L 341 287 L 189.742188 287 Z M 189.742188 116 " clip-rule="nonzero"/></clipPath><clipPath id="4386e2f5b1"><path d="M 194.839844 189.351562 C 215.027344 179.613281 223.171875 178.726562 230.964844 175.714844 C 239.640625 172.351562 253.628906 160.308594 257.878906 162.257812 C 260.535156 163.675781 261.246094 171.113281 260.183594 174.121094 C 259.296875 176.957031 255.753906 179.082031 253.097656 180.496094 C 250.265625 181.914062 246.371094 181.382812 243.535156 182.800781 C 240.878906 184.214844 239.285156 186.871094 236.453125 188.644531 C 233.089844 190.589844 228.128906 192.890625 224.589844 193.246094 C 221.933594 193.601562 219.277344 193.601562 217.328125 192.359375 C 215.027344 190.945312 212.191406 187.050781 211.839844 184.394531 C 211.660156 181.558594 212.722656 178.371094 215.378906 175.363281 C 221.222656 168.988281 242.652344 159.777344 253.453125 155.707031 C 260.714844 152.871094 266.558594 152.871094 272.933594 150.746094 C 279.128906 148.800781 286.210938 145.613281 290.992188 143.132812 C 294.359375 141.363281 296.128906 140.476562 298.960938 138.175781 C 303.035156 134.808594 308.523438 123.832031 311.710938 124.363281 C 314.191406 124.714844 314.191406 133.394531 317.023438 135.339844 C 319.679688 137.113281 327.117188 134.632812 327.648438 135.871094 C 328.003906 137.113281 323.578125 140.652344 320.390625 142.601562 C 316.140625 144.902344 307.816406 147.558594 303.210938 147.738281 C 300.378906 147.738281 297.898438 147.382812 295.953125 145.964844 C 293.828125 144.195312 291.523438 139.945312 291.347656 137.289062 C 291.347656 134.808594 292.765625 131.976562 294.003906 130.207031 C 295.242188 128.789062 296.304688 128.257812 298.253906 127.371094 C 302.328125 125.601562 312.066406 122.945312 317.910156 123.121094 C 322.335938 123.300781 327.296875 124.539062 329.953125 126.839844 C 332.078125 128.964844 332.429688 131.976562 333.140625 135.871094 C 334.203125 142.957031 331.898438 156.058594 333.140625 165.976562 C 334.378906 175.894531 339.335938 188.644531 340.222656 195.726562 C 340.753906 199.796875 340.578125 201.570312 340.222656 205.289062 C 339.691406 210.601562 337.035156 218.039062 336.148438 224.589844 C 335.265625 231.496094 336.148438 238.226562 335.085938 245.664062 C 333.847656 254.339844 332.078125 268.507812 328.710938 273.640625 C 327.117188 276.296875 325.171875 277.714844 323.046875 278.421875 C 320.742188 279.132812 317.734375 278.953125 315.609375 278.070312 C 313.484375 277.183594 311.179688 274.703125 310.296875 272.933594 C 309.410156 271.339844 308.878906 268.152344 309.234375 267.976562 C 309.765625 267.796875 312.242188 273.820312 314.898438 275.414062 C 317.554688 277.007812 324.640625 275.765625 324.992188 277.007812 C 325.347656 278.246094 320.566406 281.789062 317.023438 283.027344 C 311.535156 284.976562 297.722656 285.328125 294.359375 283.734375 C 292.941406 283.027344 292.585938 282.320312 292.234375 281.078125 C 291.523438 278.777344 290.992188 273.640625 292.054688 271.164062 C 292.941406 269.039062 295.066406 267.445312 297.015625 266.558594 C 298.960938 265.496094 301.441406 265.140625 303.566406 265.671875 C 306.222656 266.558594 309.941406 269.570312 311.179688 272.046875 C 312.242188 273.996094 312.242188 276.652344 311.535156 278.777344 C 311.003906 280.726562 309.585938 283.027344 307.816406 284.265625 C 306.222656 285.683594 303.566406 286.570312 301.617188 286.570312 C 299.492188 286.570312 296.835938 285.859375 295.066406 284.445312 C 293.117188 282.671875 290.816406 278.421875 290.992188 275.589844 C 290.992188 272.578125 293.828125 268.683594 295.953125 267.089844 C 297.722656 265.671875 300.378906 265.320312 302.503906 265.496094 C 304.628906 265.671875 308.171875 268.859375 308.703125 268.328125 C 309.054688 267.976562 306.398438 265.671875 306.578125 264.433594 C 307.109375 262.484375 311.179688 259.828125 314.015625 259.121094 C 317.203125 258.414062 321.984375 258.945312 324.640625 260.539062 C 327.296875 262.308594 329.773438 266.914062 330.128906 268.859375 C 330.484375 269.921875 330.128906 270.453125 329.773438 271.339844 C 329.242188 272.757812 328.535156 274.527344 327.296875 275.765625 C 325.703125 277.183594 322.867188 278.777344 320.566406 278.953125 C 318.265625 279.132812 315.253906 278.246094 313.484375 276.828125 C 311.535156 275.414062 310.296875 273.996094 309.410156 270.453125 C 307.109375 259.476562 320.210938 215.734375 319.148438 196.609375 C 318.617188 184.039062 312.953125 175.894531 311.890625 165.800781 C 310.648438 156.058594 309.765625 137.996094 311.890625 137.289062 C 313.128906 136.757812 318.441406 143.132812 317.734375 144.726562 C 316.671875 147.207031 302.503906 148.445312 298.253906 147.027344 C 295.597656 146.320312 293.648438 144.019531 292.585938 142.070312 C 291.703125 140.652344 291.171875 139.058594 291.347656 137.289062 C 291.703125 134.632812 293.648438 130.207031 295.953125 128.613281 C 298.429688 126.839844 303.390625 128.613281 306.222656 127.371094 C 309.234375 125.957031 310.828125 122.238281 313.660156 120.289062 C 316.492188 118.519531 320.210938 116.214844 323.046875 116.570312 C 325.878906 116.925781 329.421875 119.402344 330.484375 122.058594 C 331.898438 125.957031 329.773438 133.394531 327.117188 138.351562 C 324.109375 144.019531 318.085938 149.507812 312.597656 153.933594 C 307.460938 158.007812 302.679688 161.019531 295.773438 164.207031 C 286.390625 168.457031 272.046875 170.402344 260.535156 175.007812 C 248.316406 179.964844 232.203125 192.007812 224.589844 193.246094 C 221.402344 193.777344 219.097656 193.246094 217.328125 192.359375 C 215.734375 191.652344 214.496094 190.414062 213.609375 188.996094 C 212.546875 187.226562 211.660156 184.039062 211.839844 181.738281 C 212.191406 179.613281 213.253906 177.488281 215.378906 175.363281 C 219.097656 171.820312 228.484375 167.746094 235.035156 165.269531 C 241.058594 162.789062 247.609375 161.019531 252.746094 159.957031 C 256.640625 159.070312 259.652344 158.007812 263.015625 158.363281 C 266.378906 158.714844 271.160156 159.777344 272.753906 162.257812 C 274.703125 165.445312 274.703125 172.707031 272.046875 176.777344 C 268.152344 182.621094 255.753906 185.988281 245.484375 190.238281 C 232.378906 195.902344 205.996094 206.171875 198.734375 206.527344 C 196.609375 206.527344 195.722656 206.171875 194.484375 205.464844 C 192.890625 204.402344 190.941406 202.453125 190.410156 200.507812 C 189.703125 198.558594 189.703125 195.902344 190.410156 194.132812 C 191.121094 192.183594 194.839844 189.351562 194.839844 189.351562 " clip-rule="nonzero"/></clipPath><clipPath id="b0d3fa023b"><path d="M 26.808594 10.417969 L 342.558594 10.417969 L 342.558594 364.417969 L 26.808594 364.417969 Z M 26.808594 10.417969 " clip-rule="nonzero"/></clipPath></defs><g clip-path="url(#860b4d0dbc)"><g clip-path="url(#e6f7f18b3a)"><path fill="#ffffff" d="M 155.175781 72.824219 L 211.808594 72.824219 L 211.808594 127.125 L 155.175781 127.125 Z M 155.175781 72.824219 " fill-opacity="1" fill-rule="nonzero"/></g></g><g clip-path="url(#b9872fa4a6)"><g clip-path="url(#479101f59f)"><path fill="#ffffff" d="M 75.226562 71.101562 L 140.101562 71.101562 L 140.101562 119.101562 L 75.226562 119.101562 Z M 75.226562 71.101562 " fill-opacity="1" fill-rule="nonzero"/></g></g><g clip-path="url(#cb87a79d3e)"><g clip-path="url(#1a935e1bb6)"><path fill="#ffffff" d="M 42.300781 123.898438 L 184.457031 123.898438 L 184.457031 235.875 L 42.300781 235.875 Z M 42.300781 123.898438 " fill-opacity="1" fill-rule="nonzero"/></g></g><g clip-path="url(#7843e30ac4)"><g clip-path="url(#70c30a434a)"><path fill="#ffffff" d="M 169.199219 148.425781 L 205.273438 148.425781 L 205.273438 184.640625 L 169.199219 184.640625 Z M 169.199219 148.425781 " fill-opacity="1" fill-rule="nonzero"/></g></g><g clip-path="url(#24e8a34981)"><g clip-path="url(#136b42cec8)"><path fill="#ffffff" d="M 30.226562 116.25 L 187.574219 116.25 L 187.574219 352.273438 L 30.226562 352.273438 Z M 30.226562 116.25 " fill-opacity="1" fill-rule="nonzero"/></g></g><g clip-path="url(#9a846c3237)"><g clip-path="url(#41b4e1996a)"><path fill="#ffffff" d="M 46.050781 24.898438 L 321.914062 24.898438 L 321.914062 183.601562 L 46.050781 183.601562 Z M 46.050781 24.898438 " fill-opacity="1" fill-rule="nonzero"/></g></g><g clip-path="url(#00fdb0d7c6)"><g clip-path="url(#7a45b6d135)"><path fill="#000000" d="M 169.871094 124.714844 L 348.191406 124.714844 L 348.191406 330.898438 L 169.871094 330.898438 Z M 169.871094 124.714844 " fill-opacity="1" fill-rule="nonzero"/></g></g><g clip-path="url(#ba1013f057)"><g clip-path="url(#2f35ddab22)"><path fill="#000000" d="M 181.027344 248.671875 L 245.660156 248.671875 L 245.660156 353.453125 L 181.027344 353.453125 Z M 181.027344 248.671875 " fill-opacity="1" fill-rule="nonzero"/></g></g><g clip-path="url(#0af6e2e7b5)"><g clip-path="url(#4386e2f5b1)"><path fill="#000000" d="M 183.328125 109.488281 L 347.484375 109.488281 L 347.484375 293.519531 L 183.328125 293.519531 Z M 183.328125 109.488281 " fill-opacity="1" fill-rule="nonzero"/></g></g><g clip-path="url(#b0d3fa023b)"><path fill="#000000" d="M 45.230469 119.003906 L 175.480469 194.515625 L 175.480469 343.644531 L 54.429688 273.59375 C 48.714844 270.289062 45.230469 264.132812 45.230469 257.53125 Z M 54.234375 101.242188 L 175.363281 31.183594 C 178.183594 29.550781 181.394531 28.691406 184.648438 28.691406 C 187.90625 28.691406 191.117188 29.550781 193.9375 31.183594 L 315.066406 101.242188 C 315.632812 101.570312 316.171875 101.933594 316.695312 102.3125 L 184.648438 178.691406 L 52.605469 102.3125 C 53.128906 101.933594 53.667969 101.570312 54.234375 101.242188 Z M 324.136719 119.003906 L 324.136719 257.53125 C 324.136719 264.132812 320.683594 270.289062 314.96875 273.59375 L 216.285156 330.621094 L 193.597656 343.652344 C 193.546875 343.683594 193.886719 343.707031 193.179688 343.734375 L 193.179688 194.515625 Z M 45.148438 289.410156 L 166.25 359.46875 C 171.949219 362.769531 178.300781 364.417969 184.667969 364.417969 C 191.03125 364.417969 197.386719 362.769531 203.089844 359.46875 L 324.1875 289.410156 C 335.566406 282.828125 342.542969 270.679688 342.542969 257.53125 L 342.542969 117.304688 C 342.542969 104.15625 335.5625 92.007812 324.183594 85.425781 L 203.066406 15.367188 C 197.367188 12.066406 191.007812 10.417969 184.640625 10.417969 C 178.277344 10.417969 171.917969 12.066406 166.214844 15.367188 L 45.085938 85.425781 C 36.578125 90.347656 30.515625 98.382812 27.996094 107.625 L 27.320312 108.796875 L 27.730469 109 C 27.105469 111.691406 26.824219 114.472656 26.824219 117.304688 L 26.824219 257.53125 C 26.824219 270.679688 33.769531 282.828125 45.148438 289.410156 " fill-opacity="1" fill-rule="nonzero"/></g><path stroke-linecap="round" transform="matrix(0.649519, -0.375, 0.375, 0.649519, 203.476062, 210.614487)" fill="none" stroke-linejoin="miter" d="M 12.997636 12.999189 L 150.532206 13.0011 " stroke="#ffffff" stroke-width="26" stroke-opacity="1" stroke-miterlimit="4"/><path stroke-linecap="round" transform="matrix(0.649519, 0.375, -0.375, 0.649519, 59.357729, 148.405507)" fill="none" stroke-linejoin="miter" d="M 12.998132 12.998619 L 155.255775 13.000226 " stroke="#000000" stroke-width="26" stroke-opacity="1" stroke-miterlimit="4"/></svg>